<svg xmlns="http://www.w3.org/2000/svg" xmlns:xlink="http://www.w3.org/1999/xlink" width="500" zoomAndPan="magnify" viewBox="0 0 375 374.999991" height="500" preserveAspectRatio="xMidYMid meet" version="1.0"><path fill="#6b72c4" d="M 363.527344 187.5 C 363.527344 284.71875 284.71875 363.527344 187.5 363.527344 C 90.28125 363.527344 11.472656 284.71875 11.472656 187.5 C 11.472656 90.28125 90.28125 11.472656 187.5 11.472656 C 284.71875 11.472656 363.527344 90.28125 363.527344 187.5 Z M 363.527344 187.5 " fill-opacity="1" fill-rule="nonzero"/><path fill="#fffeff" d="M 338.203125 187.5 C 338.203125 188.1875 338.203125 188.871094 338.1875 189.554688 C 337.113281 270.132812 272.796875 335.445312 192.617188 338.117188 C 190.921875 338.175781 189.210938 338.203125 187.5 338.203125 C 186.039062 338.203125 184.582031 338.183594 183.136719 338.140625 C 102.601562 335.851562 37.890625 270.386719 36.8125 189.554688 C 36.796875 188.871094 36.796875 188.1875 36.796875 187.5 C 36.796875 185.011719 36.855469 182.53125 36.976562 180.070312 C 40.769531 101.859375 104.191406 39.296875 182.757812 36.871094 C 184.328125 36.820312 185.914062 36.796875 187.5 36.796875 C 189.085938 36.796875 190.667969 36.820312 192.242188 36.871094 C 270.808594 39.296875 334.230469 101.859375 338.023438 180.070312 C 338.144531 182.53125 338.203125 185.011719 338.203125 187.5 Z M 338.203125 187.5 " fill-opacity="1" fill-rule="nonzero"/><path fill="#ffaa9a" d="M 192.242188 36.871094 C 192.242188 36.871094 192.242188 63.539062 192.242188 63.539062 C 192.242188 66.15625 190.117188 68.277344 187.5 68.277344 C 184.882812 68.277344 182.757812 66.15625 182.757812 63.539062 C 182.757812 63.539062 182.757812 36.871094 182.757812 36.871094 C 184.328125 36.820312 185.914062 36.796875 187.5 36.796875 C 189.085938 36.796875 190.667969 36.820312 192.242188 36.871094 Z M 192.242188 36.871094 " fill-opacity="1" fill-rule="nonzero"/><path fill="#ffaa9a" d="M 192.617188 311.460938 C 192.617188 311.460938 192.617188 338.117188 192.617188 338.117188 C 190.921875 338.175781 189.210938 338.203125 187.5 338.203125 C 186.039062 338.203125 184.582031 338.183594 183.136719 338.140625 C 183.136719 338.140625 183.136719 311.460938 183.136719 311.460938 C 183.136719 308.84375 185.261719 306.722656 187.878906 306.722656 C 190.496094 306.722656 192.617188 308.84375 192.617188 311.460938 Z M 192.617188 311.460938 " fill-opacity="1" fill-rule="nonzero"/><path fill="#ffaa9a" d="M 338.203125 187.5 C 338.203125 188.1875 338.203125 188.871094 338.1875 189.554688 C 338.1875 189.554688 311.460938 189.554688 311.460938 189.554688 C 308.84375 189.554688 306.722656 187.429688 306.722656 184.8125 C 306.722656 182.195312 308.84375 180.070312 311.460938 180.070312 C 311.460938 180.070312 338.023438 180.070312 338.023438 180.070312 C 338.144531 182.53125 338.203125 185.011719 338.203125 187.5 Z M 338.203125 187.5 " fill-opacity="1" fill-rule="nonzero"/><path fill="#ffaa9a" d="M 68.277344 184.8125 C 68.277344 187.429688 66.15625 189.554688 63.539062 189.554688 C 63.539062 189.554688 36.8125 189.554688 36.8125 189.554688 C 36.796875 188.871094 36.796875 188.1875 36.796875 187.5 C 36.796875 185.011719 36.855469 182.53125 36.976562 180.070312 C 36.976562 180.070312 63.539062 180.070312 63.539062 180.070312 C 66.15625 180.070312 68.277344 182.195312 68.277344 184.8125 Z M 68.277344 184.8125 " fill-opacity="1" fill-rule="nonzero"/><path fill="#15130d" d="M 206.949219 189.554688 C 206.949219 198.535156 199.667969 205.816406 190.683594 205.816406 C 181.703125 205.816406 174.421875 198.535156 174.421875 189.554688 C 174.421875 180.574219 181.703125 173.292969 190.683594 173.292969 C 199.667969 173.292969 206.949219 180.574219 206.949219 189.554688 Z M 206.949219 189.554688 " fill-opacity="0.1" fill-rule="nonzero"/><path fill="#15130d" d="M 153.621094 305.605469 C 152.46875 305.273438 151.808594 304.070312 152.144531 302.917969 C 152.144531 302.917969 185.214844 189.171875 185.214844 189.171875 C 185.351562 188.699219 185.84375 188.425781 186.316406 188.566406 C 186.316406 188.566406 188.773438 189.277344 188.773438 189.277344 C 189.246094 189.414062 189.515625 189.910156 189.378906 190.382812 C 189.378906 190.382812 156.308594 304.128906 156.308594 304.128906 C 155.972656 305.28125 154.769531 305.941406 153.621094 305.605469 Z M 153.621094 305.605469 " fill-opacity="1" fill-rule="nonzero"/><path fill="#15130d" d="M 199.699219 184.8125 C 199.699219 184.8125 185.484375 181.945312 185.484375 181.945312 C 185.484375 181.945312 201.613281 101.949219 201.613281 101.949219 C 202.40625 98.023438 206.230469 95.480469 210.15625 96.273438 C 214.082031 97.066406 216.621094 100.890625 215.832031 104.816406 C 215.832031 104.816406 199.699219 184.8125 199.699219 184.8125 Z M 199.699219 184.8125 " fill-opacity="0.1" fill-rule="nonzero"/><path fill="#6b72c4" d="M 198.339844 182.070312 C 198.339844 182.070312 184.125 179.203125 184.125 179.203125 C 184.125 179.203125 200.253906 99.207031 200.253906 99.207031 C 201.046875 95.28125 204.871094 92.738281 208.796875 93.53125 C 212.722656 94.324219 215.261719 98.148438 214.472656 102.074219 C 214.472656 102.074219 198.339844 182.070312 198.339844 182.070312 Z M 198.339844 182.070312 " fill-opacity="1" fill-rule="nonzero"/><path fill="#15130d" d="M 141.117188 150.429688 C 143.351562 147.105469 147.855469 146.21875 151.183594 148.453125 C 151.183594 148.453125 189.316406 174.050781 189.316406 174.050781 C 189.316406 174.050781 181.230469 186.09375 181.230469 186.09375 C 181.230469 186.09375 143.097656 160.496094 143.097656 160.496094 C 139.773438 158.261719 138.886719 153.757812 141.117188 150.429688 Z M 141.117188 150.429688 " fill-opacity="0.1" fill-rule="nonzero"/><path fill="#6b72c4" d="M 139.300781 151.835938 C 141.535156 148.511719 146.039062 147.625 149.367188 149.855469 C 149.367188 149.855469 187.5 175.457031 187.5 175.457031 C 187.5 175.457031 179.414062 187.5 179.414062 187.5 C 179.414062 187.5 141.28125 161.898438 141.28125 161.898438 C 137.957031 159.667969 137.070312 155.164062 139.300781 151.835938 Z M 139.300781 151.835938 " fill-opacity="1" fill-rule="nonzero"/><path fill="#ffaa9a" d="M 203.761719 187.5 C 203.761719 196.480469 196.480469 203.761719 187.5 203.761719 C 178.519531 203.761719 171.238281 196.480469 171.238281 187.5 C 171.238281 178.519531 178.519531 171.238281 187.5 171.238281 C 196.480469 171.238281 203.761719 178.519531 203.761719 187.5 Z M 203.761719 187.5 " fill-opacity="1" fill-rule="nonzero"/></svg>